<?xml version="1.0" standalone="no"?>
<!DOCTYPE svg PUBLIC "-//W3C//DTD SVG 20010904//EN"
 "http://www.w3.org/TR/2001/REC-SVG-20010904/DTD/svg10.dtd">
<svg version="1.0" xmlns="http://www.w3.org/2000/svg"
 width="400.000000pt" height="400.000000pt" viewBox="0 0 400.000000 400.000000"
 preserveAspectRatio="xMidYMid meet">
<metadata>
Created by potrace 1.14, written by Peter Selinger 2001-2017
</metadata>
<g transform="translate(0.000000,400.000000) scale(0.100000,-0.100000)"
fill="#000000" stroke="none">
<path d="M1560 3100 l0 -30 -60 0 -60 0 0 -30 c0 -30 -1 -30 -55 -30 -54 0
-55 0 -55 -30 l0 -30 -60 0 -60 0 0 -30 c0 -30 -1 -30 -55 -30 -54 0 -55 0
-55 -30 l0 -30 -60 0 c-57 0 -60 -1 -60 -25 0 -24 -3 -25 -55 -25 -54 0 -55 0
-55 -30 l0 -30 -60 0 -60 0 0 -30 0 -30 -60 0 -60 0 0 -30 c0 -30 -1 -30 -55
-30 -54 0 -55 0 -55 -30 l0 -30 -60 0 c-57 0 -60 -1 -60 -25 0 -24 -3 -25 -55
-25 -54 0 -55 0 -55 -30 l0 -30 -60 0 -60 0 0 -30 c0 -30 -1 -30 -55 -30 l-55
0 0 -85 c0 -84 0 -85 25 -85 25 0 25 -1 25 -90 0 -89 0 -90 -25 -90 -25 0 -25
-1 -25 -85 0 -84 0 -85 25 -85 24 0 25 -3 25 -60 l0 -60 30 0 c27 0 30 -3 30
-30 l0 -30 60 0 60 0 0 30 c0 30 1 30 55 30 54 0 55 0 55 -30 0 -27 3 -30 30
-30 30 0 30 -1 30 -55 0 -54 0 -55 30 -55 27 0 30 -3 30 -30 0 -30 1 -30 55
-30 54 0 55 0 55 30 l0 30 60 0 60 0 0 -30 c0 -27 3 -30 30 -30 l30 0 0 -60 0
-60 30 0 c25 0 30 -4 30 -25 0 -24 3 -25 55 -25 52 0 55 1 55 25 0 24 3 25 60
25 57 0 60 -1 60 -25 0 -21 5 -25 30 -25 l30 0 0 -60 c0 -57 1 -60 25 -60 21
0 25 -5 25 -30 l0 -30 60 0 60 0 0 30 c0 30 1 30 55 30 54 0 55 0 55 -30 0
-27 3 -30 30 -30 30 0 30 -1 30 -55 0 -54 0 -55 30 -55 27 0 30 -3 30 -30 l0
-30 60 0 60 0 0 30 c0 30 1 30 55 30 54 0 55 0 55 -30 0 -27 3 -30 30 -30 l30
0 0 -60 0 -60 30 0 c27 0 30 -3 30 -30 0 -30 1 -30 55 -30 54 0 55 0 55 30 l0
30 60 0 60 0 0 -30 0 -30 60 0 c57 0 60 -1 60 -25 0 -25 1 -25 85 -25 84 0 85
0 85 25 0 24 3 25 60 25 l60 0 0 30 c0 30 1 30 55 30 54 0 55 0 55 30 l0 30
60 0 60 0 0 30 c0 30 1 30 55 30 54 0 55 0 55 30 l0 30 60 0 c57 0 60 1 60 25
0 24 3 25 55 25 54 0 55 0 55 30 l0 30 60 0 60 0 0 30 0 30 60 0 60 0 0 30 c0
30 1 30 55 30 54 0 55 0 55 30 l0 30 60 0 c57 0 60 1 60 25 0 24 3 25 55 25
54 0 55 0 55 30 l0 30 60 0 60 0 0 30 c0 30 1 30 55 30 l55 0 0 85 c0 84 0 85
-25 85 -25 0 -25 1 -25 90 0 88 1 90 24 90 20 0 24 6 30 46 3 26 5 79 4 118 0
39 -3 56 -5 39 -4 -33 -5 -33 -59 -33 -53 0 -54 0 -54 30 l0 30 -60 0 -60 0 0
30 c0 30 -1 30 -55 30 -54 0 -55 0 -55 30 l0 30 -60 0 c-57 0 -60 1 -60 25 0
24 -3 25 -55 25 -54 0 -55 0 -55 30 l0 30 -60 0 -60 0 0 30 0 30 -60 0 -60 0
0 30 c0 30 -1 30 -55 30 -54 0 -55 0 -55 30 l0 30 -60 0 c-57 0 -60 1 -60 25
0 24 -3 25 -55 25 -54 0 -55 0 -55 30 l0 30 -60 0 -60 0 0 30 c0 30 -1 30 -55
30 -54 0 -55 0 -55 30 l0 30 -60 0 -60 0 0 30 0 30 -60 0 c-57 0 -60 1 -60 25
0 24 -3 25 -55 25 -54 0 -55 0 -55 30 l0 30 -60 0 -60 0 0 30 c0 30 -1 30 -55
30 -54 0 -55 0 -55 30 l0 30 -60 0 -60 0 0 30 0 30 -60 0 -60 0 0 30 0 30 -85
0 -85 0 0 -30z"/>
<path d="M3934 2340 c0 -52 1 -74 3 -47 2 26 2 68 0 95 -2 26 -3 4 -3 -48z"/>
</g>
</svg>
